<svg width="76" height="76" viewBox="0 0 76 76" fill="none" xmlns="http://www.w3.org/2000/svg">
<path d="M33 28V48L49 38L33 28Z" fill="white"/>
<path d="M33.0646 66.3971C33.7208 66.5146 34.2491 66.704 34.6493 66.9653C35.0483 67.2331 35.3324 67.5379 35.5015 67.8797C35.6705 68.2215 35.7311 68.5642 35.6831 68.9078C35.6737 68.9603 35.6458 69.0027 35.5994 69.0351C35.5453 69.0728 35.4886 69.0864 35.4296 69.0758L34.1893 68.8537C34.0974 68.8373 34.0315 68.8086 33.9914 68.7675C33.9448 68.7253 33.9065 68.6744 33.8765 68.6149C33.8416 68.5071 33.7865 68.399 33.711 68.2907C33.6291 68.1812 33.5179 68.0834 33.3775 67.9973C33.2294 67.9166 33.0405 67.8557 32.8108 67.8146C32.4302 67.7464 32.1342 67.7544 31.9227 67.8385C31.7047 67.9213 31.5775 68.0645 31.5411 68.2679C31.5152 68.4123 31.5466 68.5398 31.6351 68.6505C31.7225 68.7677 31.8779 68.8836 32.1012 68.998C32.3168 69.1179 32.6111 69.2519 32.9842 69.3999C33.4641 69.5942 33.8666 69.8051 34.1916 70.0326C34.5089 70.2655 34.7353 70.5329 34.8709 70.8349C35.0053 71.1434 35.0361 71.5011 34.9632 71.9079C34.8916 72.3082 34.716 72.6459 34.4365 72.9209C34.1504 73.1948 33.7881 73.3839 33.3495 73.4883C32.9109 73.5926 32.4127 73.5949 31.8549 73.495C31.4021 73.414 31.0157 73.2838 30.6956 73.1046C30.3689 72.9242 30.1051 72.7145 29.9041 72.4753C29.7031 72.2361 29.5635 71.9944 29.4853 71.7502C29.3994 71.5113 29.3719 71.2863 29.403 71.0751C29.4124 71.0226 29.4409 70.9769 29.4885 70.938C29.5349 70.9057 29.5876 70.8948 29.6467 70.9054L30.946 71.138C31.0182 71.1509 31.0782 71.1752 31.126 71.2108C31.1738 71.2465 31.2121 71.2974 31.2409 71.3635C31.2544 71.5149 31.3371 71.6584 31.4889 71.7939C31.633 71.9348 31.8396 72.0294 32.1087 72.0776C32.3974 72.1292 32.6332 72.1173 32.8161 72.0416C32.9912 71.9714 33.0975 71.8313 33.1351 71.6213C33.1586 71.49 33.1365 71.3676 33.0688 71.2539C32.9946 71.139 32.8622 71.0272 32.6717 70.9186C32.4746 70.8089 32.2027 70.6823 31.8558 70.5389C31.2786 70.3205 30.8216 70.093 30.4846 69.8566C30.1465 69.6268 29.9162 69.362 29.7937 69.0624C29.6701 68.7694 29.6441 68.4227 29.7158 68.0224C29.7957 67.5762 29.9929 67.2119 30.3076 66.9296C30.6145 66.6527 31.0064 66.4689 31.4832 66.3782C31.96 66.2874 32.4871 66.2937 33.0646 66.3971Z" fill="white"/>
<path d="M25.0766 63.9668C25.1392 64.005 25.1783 64.0561 25.1939 64.1203C25.2094 64.1844 25.1981 64.2478 25.1599 64.3104L21.7752 69.8596C21.737 69.9222 21.6858 69.9613 21.6217 69.9769C21.5576 69.9924 21.4942 69.9811 21.4316 69.9429L17.4447 67.5111C17.3821 67.4729 17.343 67.4218 17.3275 67.3576C17.3119 67.2935 17.3232 67.2301 17.3614 67.1675L17.8509 66.365C17.8891 66.3024 17.9403 66.2633 18.0044 66.2478C18.0685 66.2322 18.1319 66.2436 18.1945 66.2817L20.9179 67.9428L21.6209 66.7903L19.0853 65.2438C19.0227 65.2056 18.9854 65.1516 18.9733 65.0817C18.9578 65.0176 18.9691 64.9542 19.0073 64.8916L19.4603 64.1489C19.495 64.092 19.5462 64.0529 19.6138 64.0317C19.6779 64.0161 19.7413 64.0274 19.8039 64.0656L22.3395 65.6122L23.0633 64.4255L20.2716 62.7227C20.209 62.6845 20.1699 62.6334 20.1544 62.5692C20.1388 62.5051 20.1502 62.4417 20.1883 62.3791L20.6778 61.5766C20.716 61.514 20.7672 61.4749 20.8313 61.4594C20.8955 61.4439 20.9588 61.4552 21.0214 61.4934L25.0766 63.9668Z" fill="white"/>
<path d="M16.5477 57.4947C16.5922 57.5529 16.6101 57.6148 16.6013 57.6802C16.5926 57.7456 16.5591 57.8006 16.5008 57.8451L11.3363 61.792C11.278 61.8365 11.2162 61.8544 11.1508 61.8456C11.0854 61.8369 11.0304 61.8034 10.9859 61.7451L8.1502 58.0346C8.10568 57.9763 8.08778 57.9145 8.09652 57.8491C8.10527 57.7837 8.13877 57.7287 8.19704 57.6842L8.94391 57.1134C9.00217 57.0689 9.06401 57.051 9.12943 57.0597C9.19484 57.0685 9.24982 57.102 9.29434 57.1602L11.2313 59.6948L12.304 58.8751L10.5006 56.5153C10.456 56.457 10.4408 56.3932 10.4548 56.3237C10.4636 56.2583 10.4971 56.2033 10.5553 56.1588L11.2466 55.6305C11.2996 55.59 11.3614 55.5721 11.4321 55.5768C11.4975 55.5856 11.5525 55.6191 11.597 55.6773L13.4004 58.0371L14.5049 57.1931L12.5193 54.595C12.4748 54.5367 12.4569 54.4749 12.4656 54.4094C12.4743 54.344 12.5079 54.2891 12.5661 54.2445L13.313 53.6738C13.3713 53.6292 13.4331 53.6113 13.4985 53.6201C13.5639 53.6288 13.6189 53.6623 13.6634 53.7206L16.5477 57.4947Z" fill="white"/>
<path d="M9.25378 39.3697C9.27813 39.9826 9.19937 40.5195 9.01752 40.9804C8.83567 41.4413 8.54993 41.8062 8.1603 42.0753C7.76401 42.3445 7.2633 42.5045 6.65817 42.5552C6.37199 42.5733 6.08568 42.588 5.79924 42.5994C5.5128 42.6108 5.2229 42.6189 4.92953 42.6239C4.32895 42.6211 3.82045 42.5012 3.40405 42.2642C2.98073 42.0208 2.65681 41.6767 2.43232 41.2319C2.20782 40.7872 2.08353 40.2617 2.05946 39.6555C2.03564 39.056 2.11799 38.5256 2.3065 38.0644C2.49475 37.5966 2.79022 37.2246 3.19291 36.9484C3.58893 36.6724 4.08631 36.5126 4.68505 36.4688C4.97762 36.4438 5.26713 36.4256 5.55357 36.4143C5.84001 36.4029 6.12671 36.3982 6.41368 36.4001C7.02093 36.4027 7.53276 36.5225 7.94916 36.7594C8.3589 36.9967 8.67268 37.3379 8.89052 37.7829C9.10835 38.2279 9.22944 38.7569 9.25378 39.3697ZM7.81492 39.4269C7.80089 39.0738 7.68293 38.7916 7.46104 38.5803C7.23888 38.3622 6.89438 38.2558 6.42755 38.261C6.13392 38.2593 5.85721 38.2637 5.59741 38.274C5.33762 38.2843 5.0681 38.3017 4.78885 38.3261C4.47629 38.3519 4.22554 38.4219 4.03659 38.5361C3.84071 38.644 3.69972 38.7897 3.6136 38.9733C3.52749 39.1568 3.48906 39.3652 3.49832 39.5983C3.50732 39.8248 3.56202 40.0261 3.66242 40.2023C3.76283 40.3784 3.91507 40.5158 4.11914 40.6145C4.31656 40.7134 4.57207 40.7633 4.88569 40.7642C5.16573 40.7597 5.43565 40.7523 5.69545 40.742C5.95524 40.7317 6.23156 40.7174 6.52439 40.6991C6.9899 40.6606 7.32487 40.5272 7.5293 40.2989C7.73374 40.0706 7.82894 39.7799 7.81492 39.4269Z" fill="white"/>
<path d="M11.0028 27.995C10.7918 28.5567 10.5161 29.0157 10.1757 29.3721C9.83138 29.7199 9.42551 29.9377 8.95807 30.0256C8.4844 30.1112 7.95112 30.0426 7.35824 29.8199L3.53887 28.385C3.47022 28.3592 3.42226 28.3163 3.39498 28.2562C3.36771 28.1961 3.36696 28.1317 3.39275 28.0631L3.84642 26.8555C3.87221 26.7868 3.91515 26.7389 3.97525 26.7116C4.03534 26.6843 4.09972 26.6836 4.16837 26.7094L7.97838 28.1407C8.38403 28.2931 8.72617 28.3112 9.0048 28.1951C9.27953 28.0705 9.48371 27.8303 9.61735 27.4745C9.74864 27.125 9.75078 26.8161 9.62375 26.5476C9.49283 26.2705 9.22454 26.0558 8.81889 25.9034L5.00887 24.472C4.94023 24.4462 4.89226 24.4033 4.86499 24.3432C4.84006 24.2769 4.83932 24.2125 4.86276 24.1501L5.31994 22.9331C5.34339 22.8707 5.38516 22.8259 5.44526 22.7986C5.5077 22.7651 5.57324 22.7612 5.64189 22.787L9.46127 24.2219C10.0541 24.4446 10.5007 24.7441 10.8009 25.1204C11.0948 25.4943 11.2568 25.9255 11.287 26.4139C11.3109 26.9001 11.2162 27.4271 11.0028 27.995Z" fill="white"/>
<path d="M15.1281 20.1542C15.0784 20.2082 15.0206 20.2365 14.9547 20.2392C14.8888 20.2419 14.8288 20.2185 14.7749 20.1688L9.99314 15.7659C9.93919 15.7163 9.91085 15.6585 9.90813 15.5925C9.90541 15.5266 9.92889 15.4666 9.97856 15.4127L11.821 13.4117C12.4035 12.7791 13.009 12.4167 13.6374 12.3248C14.2655 12.2234 14.8468 12.4188 15.3813 12.911C15.7295 13.2316 15.9448 13.5884 16.027 13.9813C16.1138 14.3693 16.0921 14.7571 15.9618 15.1446L18.7063 15.7958C18.7492 15.8081 18.783 15.8256 18.8075 15.8482C18.8467 15.8843 18.8677 15.9354 18.8704 16.0013C18.8728 16.0578 18.8536 16.1081 18.813 16.1523L17.9188 17.1233C17.833 17.2165 17.7478 17.2649 17.663 17.2684C17.5733 17.2673 17.4998 17.2586 17.4425 17.2421L15.0519 16.5905L14.3542 17.3482L15.9873 18.852C16.0413 18.9017 16.0696 18.9595 16.0723 19.0254C16.0751 19.0913 16.0516 19.1513 16.0019 19.2052L15.1281 20.1542ZM13.3169 16.3932L14.1027 15.5398C14.3149 15.3093 14.4166 15.0857 14.4076 14.8691C14.4032 14.6475 14.3029 14.4464 14.1067 14.2658C13.9155 14.0896 13.709 14.0038 13.4875 14.0082C13.2704 14.0077 13.0513 14.1277 12.83 14.368L12.0443 15.2213L13.3169 16.3932Z" fill="white"/>
<path d="M28.5087 10.4248C28.4566 10.4361 28.4035 10.4272 28.3494 10.398C28.3004 10.3609 28.2703 10.3163 28.259 10.2642C28.2519 10.2316 28.2488 10.2016 28.2496 10.1741L29.1841 3.40167C29.1881 3.32576 29.2137 3.25538 29.2611 3.19054C29.3135 3.11776 29.3951 3.06935 29.5058 3.0453L30.9521 2.73131C31.0629 2.70726 31.1539 2.71819 31.2253 2.7641C31.3018 2.80207 31.3575 2.85477 31.3927 2.92219L35.0414 8.69959C35.0601 8.72283 35.073 8.75073 35.0801 8.7833C35.0914 8.83542 35.0792 8.88923 35.0435 8.94474C35.0129 8.99231 34.9683 9.02247 34.9096 9.0352L33.7076 9.29615C33.6099 9.31737 33.53 9.31083 33.468 9.27654C33.4111 9.23432 33.3719 9.19508 33.3504 9.15882L32.7528 8.24478L30.1436 8.81124L29.9887 9.88865C29.9841 9.93056 29.9647 9.98253 29.9304 10.0446C29.8947 10.1001 29.8215 10.1398 29.7107 10.1639L28.5087 10.4248ZM30.2388 7.31704L32.0564 6.92243L30.5777 4.54195L30.2388 7.31704Z" fill="white"/>
<path d="M43.1737 9.57483C42.5497 9.46704 42.0318 9.27274 41.6203 8.99194C41.2153 8.71226 40.922 8.35379 40.7405 7.91651C40.5655 7.48036 40.5153 6.96768 40.5901 6.37847C40.63 6.10799 40.6766 5.81837 40.73 5.5096C40.7833 5.20084 40.8376 4.90579 40.893 4.62444C41.018 4.05744 41.2393 3.59841 41.5571 3.24736C41.8759 2.88975 42.2763 2.64769 42.7582 2.52119C43.2412 2.38812 43.7882 2.37435 44.3991 2.47987C44.8327 2.55476 45.2238 2.67981 45.5724 2.85503C45.9221 3.02368 46.2168 3.23694 46.4564 3.49481C46.6972 3.74612 46.8675 4.03263 46.9676 4.35435C47.0753 4.67064 47.1007 5.01329 47.0437 5.38231C47.0401 5.44257 47.0119 5.48844 46.9591 5.51991C46.9129 5.55252 46.8602 5.56372 46.8011 5.55351L45.4708 5.32375C45.3854 5.309 45.3225 5.28123 45.2822 5.24044C45.243 5.19308 45.2155 5.11729 45.1997 5.01308C45.1678 4.64901 45.0576 4.38642 44.8689 4.22529C44.688 4.05873 44.4464 3.94935 44.1442 3.89716C43.7829 3.83476 43.4795 3.88723 43.2341 4.05457C42.9899 4.21534 42.8176 4.52724 42.7173 4.99027C42.6046 5.52555 42.5093 6.07738 42.4314 6.64576C42.3706 7.11559 42.4277 7.47048 42.6027 7.71044C42.7789 7.94383 43.0477 8.09173 43.409 8.15413C43.7112 8.20633 43.9787 8.18488 44.2116 8.0898C44.4445 7.99472 44.6332 7.78375 44.7776 7.4569C44.8209 7.36289 44.8684 7.30344 44.92 7.27853C44.9794 7.24819 45.0518 7.2404 45.1372 7.25515L46.4675 7.48491C46.5266 7.49512 46.5725 7.52334 46.6051 7.56957C46.6443 7.61692 46.6555 7.6696 46.6387 7.72759C46.5686 8.09434 46.4292 8.41191 46.2204 8.6803C46.0194 8.94326 45.7628 9.15602 45.4506 9.31859C45.1395 9.47459 44.7904 9.57666 44.4032 9.6248C44.0171 9.66637 43.6073 9.64971 43.1737 9.57483Z" fill="white"/>
<path d="M52.2438 12.7194C52.1804 12.6825 52.1403 12.6321 52.1235 12.5683C52.1066 12.5045 52.1166 12.4409 52.1536 12.3775L54.7603 7.90122L53.2221 7.00548C53.1587 6.96857 53.1186 6.91822 53.1018 6.85441C53.0883 6.78483 53.0983 6.72124 53.1318 6.66363L53.6703 5.73899C53.7072 5.67562 53.7576 5.63551 53.8214 5.61867C53.8852 5.60182 53.9488 5.61185 54.0121 5.64876L58.6613 8.35612C58.7247 8.39303 58.7648 8.44339 58.7816 8.5072C58.7985 8.57101 58.7884 8.6346 58.7515 8.69797L58.2131 9.62261C58.1795 9.68022 58.1292 9.72033 58.062 9.74294C57.9982 9.75978 57.9346 9.74975 57.8712 9.71285L56.333 8.8171L53.7263 13.2934C53.6894 13.3568 53.639 13.3969 53.5752 13.4137C53.5114 13.4306 53.4478 13.4206 53.3845 13.3836L52.2438 12.7194Z" fill="white"/>
<path d="M58.8781 17.819C58.8284 17.7651 58.805 17.7052 58.8077 17.6392C58.8104 17.5733 58.8387 17.5155 58.8927 17.4658L63.6744 13.0629C63.7284 13.0133 63.7883 12.9898 63.8542 12.9925C63.9202 12.9952 63.978 13.0236 64.0277 13.0775L64.9353 14.0633C64.985 14.1172 65.0085 14.1772 65.0058 14.2431C65.003 14.3091 64.9747 14.3669 64.9208 14.4165L60.139 18.8194C60.0851 18.8691 60.0251 18.8925 59.9592 18.8898C59.8933 18.8871 59.8354 18.8588 59.7858 18.8048L58.8781 17.819Z" fill="white"/>
<path d="M64.1059 25.2705C64.0586 25.1675 64.0483 25.0732 64.075 24.9876C64.1017 24.9019 64.1458 24.8303 64.2074 24.7727L69.1716 20.2473C69.1963 20.2213 69.2208 20.2027 69.245 20.1916C69.2935 20.1693 69.3442 20.168 69.3973 20.1877C69.4591 20.2106 69.5026 20.2493 69.5277 20.3038L70.0453 21.4306C70.0898 21.5276 70.0973 21.6158 70.0679 21.6954C70.0384 21.775 70.0022 21.8319 69.9593 21.8663L66.3497 25.0761L71.1406 24.438C71.1975 24.4339 71.2643 24.4435 71.341 24.4669C71.4206 24.4964 71.4827 24.5596 71.5272 24.6566L72.0448 25.7833C72.0698 25.8379 72.0695 25.893 72.0438 25.9489C72.0269 26.008 71.9943 26.0487 71.9458 26.0709C71.9216 26.0821 71.8915 26.0885 71.8557 26.0903L65.1884 26.9082C65.1046 26.9173 65.0215 26.9041 64.9391 26.8686C64.8596 26.8391 64.7947 26.7699 64.7446 26.6608L64.1059 25.2705Z" fill="white"/>
<path d="M66.7502 33.86C66.7416 33.7872 66.7578 33.7249 66.7987 33.6731C66.8396 33.6213 66.8965 33.5911 66.9693 33.5825L73.4248 32.8233C73.4976 32.8147 73.56 32.8309 73.6117 32.8718C73.6635 32.9127 73.6937 32.9695 73.7023 33.0423L73.8588 34.3732C73.8674 34.446 73.8512 34.5083 73.8103 34.5601C73.7694 34.6119 73.7126 34.6421 73.6397 34.6507L67.1842 35.4099C67.1114 35.4185 67.0491 35.4023 66.9973 35.3614C66.9455 35.3205 66.9153 35.2637 66.9067 35.1908L66.7502 33.86Z" fill="white"/>
<path d="M66.6407 42.7641C66.6539 42.692 66.6878 42.6372 66.7421 42.5998C66.7965 42.5624 66.8597 42.5503 66.9318 42.5636L72.0261 43.5023L72.3486 41.7517C72.3619 41.6796 72.3957 41.6248 72.4501 41.5874C72.511 41.5512 72.5742 41.5391 72.6398 41.5512L73.6921 41.7451C73.7642 41.7584 73.819 41.7922 73.8564 41.8465C73.8938 41.9009 73.9059 41.9641 73.8926 42.0362L72.9177 47.3272C72.9044 47.3993 72.8706 47.4541 72.8162 47.4915C72.7619 47.5289 72.6986 47.541 72.6265 47.5277L71.5742 47.3338C71.5087 47.3217 71.4539 47.2879 71.4099 47.2324C71.3725 47.178 71.3604 47.1148 71.3737 47.0427L71.6962 45.2921L66.602 44.3534C66.5299 44.3402 66.4751 44.3063 66.4377 44.252C66.4002 44.1976 66.3882 44.1344 66.4015 44.0623L66.6407 42.7641Z" fill="white"/>
<path d="M64.0853 50.7325C64.1193 50.6675 64.1678 50.6251 64.2307 50.6053C64.2937 50.5856 64.3577 50.5927 64.4227 50.6267L70.1836 53.637C70.2486 53.6709 70.291 53.7194 70.3107 53.7824C70.3305 53.8453 70.3234 53.9093 70.2894 53.9743L69.6688 55.162C69.6349 55.227 69.5864 55.2693 69.5234 55.2891C69.4604 55.3088 69.3965 55.3017 69.3315 55.2678L63.5705 52.2574C63.5056 52.2235 63.4632 52.175 63.4434 52.112C63.4237 52.0491 63.4308 51.9851 63.4648 51.9201L64.0853 50.7325Z" fill="white"/>
<path d="M60.0914 56.9481C60.1438 56.8967 60.2029 56.8713 60.2689 56.872C60.3349 56.8726 60.3936 56.8991 60.445 56.9515L64.9965 61.5919C65.0479 61.6442 65.0732 61.7034 65.0726 61.7694C65.0719 61.8354 65.0454 61.8941 64.9931 61.9454L61.6591 65.2155C61.6068 65.2669 61.5476 65.2922 61.4816 65.2916C61.4156 65.291 61.3569 65.2645 61.3056 65.2121L60.6474 64.541C60.596 64.4887 60.5707 64.4295 60.5713 64.3635C60.5719 64.2975 60.5984 64.2389 60.6508 64.1875L62.9282 61.9537L61.9828 60.99L59.8625 63.0697C59.8102 63.121 59.7487 63.144 59.678 63.1386C59.612 63.138 59.5533 63.1115 59.502 63.0591L58.8928 62.438C58.8461 62.3904 58.8207 62.3312 58.8167 62.2605C58.8173 62.1945 58.8438 62.1358 58.8962 62.0845L61.0165 60.0048L60.0432 59.0124L57.7087 61.3022C57.6563 61.3536 57.5972 61.3789 57.5312 61.3783C57.4652 61.3776 57.4065 61.3512 57.3552 61.2988L56.6969 60.6277C56.6456 60.5754 56.6202 60.5162 56.6209 60.4502C56.6215 60.3842 56.648 60.3255 56.7003 60.2742L60.0914 56.9481Z" fill="white"/>
<path d="M49.5199 64.4703C50.1326 64.2076 50.6779 64.0752 51.1559 64.0733C51.6364 64.0776 52.0413 64.1759 52.3705 64.3684C52.6997 64.5609 52.9388 64.8138 53.0877 65.1272C53.1087 65.1762 53.1087 65.227 53.0877 65.2795C53.0632 65.3408 53.0234 65.3832 52.9683 65.4069L51.8103 65.9036C51.7245 65.9403 51.6536 65.9526 51.5976 65.9404C51.5354 65.9308 51.4754 65.9093 51.4177 65.8761C51.3292 65.8052 51.2237 65.7453 51.1012 65.6963C50.9725 65.6499 50.8258 65.6294 50.6613 65.6347C50.4932 65.6488 50.3019 65.7018 50.0875 65.7937C49.7321 65.9462 49.4893 66.1156 49.3589 66.3021C49.2224 66.4912 49.1949 66.6808 49.2763 66.8707C49.3342 67.0055 49.4305 67.0947 49.5653 67.1385C49.7027 67.1883 49.8962 67.1997 50.1457 67.1724C50.3916 67.154 50.7111 67.104 51.1042 67.0225C51.6119 66.9208 52.064 66.8756 52.4605 66.8869C52.8536 66.9069 53.1897 67.0057 53.469 67.1833C53.751 67.3671 53.9734 67.6489 54.1363 68.0287C54.2966 68.4025 54.3357 68.7811 54.2535 69.1645C54.1652 69.5506 53.9666 69.9078 53.6577 70.2361C53.3488 70.5645 52.9339 70.8404 52.4131 71.0637C51.9904 71.2451 51.596 71.3489 51.2301 71.3753C50.8581 71.4043 50.5224 71.3741 50.223 71.2849C49.9236 71.1957 49.6741 71.0706 49.4744 70.9096C49.2713 70.7574 49.1246 70.5845 49.0344 70.3911C49.0134 70.3421 49.0121 70.2882 49.0304 70.2296C49.0514 70.1771 49.0895 70.139 49.1446 70.1153L50.3578 69.595C50.4252 69.5661 50.4886 69.5534 50.5481 69.5569C50.6077 69.5603 50.6676 69.5818 50.7281 69.6212C50.8226 69.7402 50.9706 69.8145 51.1719 69.8442C51.3698 69.8827 51.5943 69.8481 51.8455 69.7403C52.1151 69.6247 52.3054 69.485 52.4166 69.3213C52.5242 69.1663 52.536 68.9908 52.4519 68.7947C52.3993 68.6722 52.3135 68.5821 52.1944 68.5243C52.0692 68.4692 51.8972 68.4487 51.6784 68.4628C51.4534 68.4795 51.1567 68.5233 50.7882 68.5943C50.1859 68.7293 49.6791 68.7907 49.2677 68.7786C48.8589 68.7726 48.521 68.6781 48.2539 68.4952C47.9895 68.3185 47.7772 68.0432 47.6169 67.6695C47.4382 67.2529 47.4026 66.8401 47.5101 66.4313C47.6142 66.0312 47.8404 65.6622 48.1887 65.3242C48.537 64.9862 48.9807 64.7016 49.5199 64.4703Z" fill="white"/>
</svg>
