<svg width="120" height="120" viewBox="0 0 120 120" fill="none" xmlns="http://www.w3.org/2000/svg">
<circle cx="60" cy="60" r="60" fill="white"/>
<circle cx="60" cy="60" r="55.5" stroke="#219D80" stroke-opacity="0.15" stroke-width="9"/>
<g clip-path="url(#clip0_29_274)">
<path d="M77.3249 53.7997H61.6499V59.5747C61.6499 63.6688 58.3189 66.9997 54.2249 66.9997C50.1308 66.9997 46.7999 63.6688 46.7999 59.5747V47.0347L40.1071 51.0566C38.1168 52.2425 36.8999 54.3978 36.8999 56.7078V61.5857L28.6499 66.35C27.0721 67.2575 26.5255 69.2788 27.4433 70.8566L35.6933 85.1497C36.6008 86.7275 38.6221 87.2638 40.1999 86.3563L50.863 80.1997H64.9499C68.5902 80.1997 71.5499 77.24 71.5499 73.5997H73.1999C75.0252 73.5997 76.4999 72.125 76.4999 70.2997V63.6997H77.3249C78.6964 63.6997 79.7999 62.5963 79.7999 61.2247V56.2747C79.7999 54.9032 78.6964 53.7997 77.3249 53.7997ZM92.5564 49.9428L84.3064 35.6497C83.3989 34.0719 81.3777 33.5357 79.7999 34.4432L69.1368 40.5997H58.5974C57.3599 40.5997 56.1533 40.9503 55.1015 41.6L51.6468 43.7553C50.6774 44.3535 50.0999 45.4157 50.0999 46.55V59.5747C50.0999 61.8538 51.9458 63.6997 54.2249 63.6997C56.504 63.6997 58.3499 61.8538 58.3499 59.5747V50.4997H77.3249C80.5114 50.4997 83.0999 53.0882 83.0999 56.2747V59.2138L91.3499 54.4494C92.9277 53.5316 93.4639 51.5207 92.5564 49.9428Z" fill="#219D80"/>
</g>
<mask id="path-4-inside-1_29_274" fill="white">
<path fill-rule="evenodd" clip-rule="evenodd" d="M81.6705 4.05014C72.3908 0.455905 62.3856 -0.765325 52.5572 0.463405C50.0925 0.771534 48.5182 3.1617 49.01 5.59638C49.5015 8.02924 51.8706 9.58332 54.3376 9.31081C56.1968 9.10545 58.0861 9.00002 60 9.00002C88.1665 9.00002 111 31.8335 111 60C111 88.1665 88.1665 111 60 111C39.7673 111 22.2865 99.2182 14.0438 82.1411C12.9652 79.9064 10.3905 78.7233 8.06894 79.5995C5.74712 80.4758 4.55992 83.0772 5.60747 85.327C9.78901 94.3075 16.1406 102.136 24.1174 108.088C33.2977 114.938 44.247 119.017 55.6715 119.844C67.0961 120.67 78.5184 118.209 88.589 112.751C98.6595 107.293 106.957 99.0668 112.502 89.0438C118.047 79.0209 120.606 67.6202 119.879 56.1889C119.151 44.7577 115.167 33.7735 108.396 24.5344C101.626 15.2952 92.3517 8.18718 81.6705 4.05014Z"/>
</mask>
<path fill-rule="evenodd" clip-rule="evenodd" d="M81.6705 4.05014C72.3908 0.455905 62.3856 -0.765325 52.5572 0.463405C50.0925 0.771534 48.5182 3.1617 49.01 5.59638C49.5015 8.02924 51.8706 9.58332 54.3376 9.31081C56.1968 9.10545 58.0861 9.00002 60 9.00002C88.1665 9.00002 111 31.8335 111 60C111 88.1665 88.1665 111 60 111C39.7673 111 22.2865 99.2182 14.0438 82.1411C12.9652 79.9064 10.3905 78.7233 8.06894 79.5995C5.74712 80.4758 4.55992 83.0772 5.60747 85.327C9.78901 94.3075 16.1406 102.136 24.1174 108.088C33.2977 114.938 44.247 119.017 55.6715 119.844C67.0961 120.67 78.5184 118.209 88.589 112.751C98.6595 107.293 106.957 99.0668 112.502 89.0438C118.047 79.0209 120.606 67.6202 119.879 56.1889C119.151 44.7577 115.167 33.7735 108.396 24.5344C101.626 15.2952 92.3517 8.18718 81.6705 4.05014Z" fill="white"/>
<path d="M81.6705 4.05014L78.4199 12.4426L81.6705 4.05014ZM24.1174 108.088L29.4998 100.875H29.4998L24.1174 108.088ZM55.6715 119.844L56.3208 110.867H56.3208L55.6715 119.844ZM88.589 112.751L92.8773 120.664V120.664L88.589 112.751ZM112.502 89.0438L120.377 93.4004L112.502 89.0438ZM119.879 56.1889L128.861 55.6173V55.6173L119.879 56.1889ZM108.396 24.5344L115.656 19.2145L108.396 24.5344ZM53.6737 9.39389C62.0278 8.34947 70.5322 9.38754 78.4199 12.4426L84.9211 -4.34234C74.2493 -8.47573 62.7435 -9.88012 51.4407 -8.46708L53.6737 9.39389ZM55.3257 18.2564C56.8574 18.0872 58.4168 18 60 18V1.81406e-05C57.7553 1.81406e-05 55.5361 0.123682 53.3494 0.365224L55.3257 18.2564ZM60 18C83.196 18 102 36.8041 102 60H120C120 26.8629 93.1371 1.81406e-05 60 1.81406e-05V18ZM102 60C102 83.196 83.196 102 60 102V120C93.1371 120 120 93.1371 120 60H102ZM60 102C43.3512 102 28.9474 92.3137 22.1491 78.2289L5.9386 86.0532C15.6255 106.123 36.1834 120 60 120V102ZM29.4998 100.875C22.7195 95.8153 17.3207 89.1614 13.7664 81.528L-2.55143 89.126C2.25735 99.4536 9.5616 108.456 18.735 115.301L29.4998 100.875ZM56.3208 110.867C46.6099 110.165 37.303 106.697 29.4998 100.875L18.735 115.301C29.2923 123.179 41.884 127.87 55.0223 128.82L56.3208 110.867ZM84.3006 104.838C75.7407 109.478 66.0317 111.57 56.3208 110.867L55.0222 128.82C68.1605 129.771 81.2962 126.94 92.8773 120.664L84.3006 104.838ZM104.627 84.6873C99.9137 93.2068 92.8606 100.199 84.3006 104.838L92.8773 120.664C104.458 114.387 114.001 104.927 120.377 93.4004L104.627 84.6873ZM110.897 56.7606C111.515 66.4772 109.34 76.1677 104.627 84.6873L120.377 93.4004C126.754 81.874 129.697 68.7632 128.861 55.6173L110.897 56.7606ZM101.137 29.8542C106.892 37.7075 110.279 47.044 110.897 56.7606L128.861 55.6173C128.024 42.4713 123.442 29.8395 115.656 19.2145L101.137 29.8542ZM78.4199 12.4426C87.499 15.9591 95.3817 22.0009 101.137 29.8542L115.656 19.2145C107.869 8.5895 97.2045 0.415258 84.9211 -4.34234L78.4199 12.4426ZM22.1491 78.2289C19.2653 72.2543 12.0335 68.4836 4.89102 71.1792L11.2469 88.0198C8.74746 88.9631 6.66514 87.5585 5.9386 86.0532L22.1491 78.2289ZM4.89102 71.1792C-1.89814 73.7415 -5.99905 81.7217 -2.55143 89.126L13.7664 81.528C15.1189 84.4328 13.3924 87.21 11.2469 88.0198L4.89102 71.1792ZM40.1882 7.37846C41.6987 14.856 48.7279 18.9852 55.3257 18.2564L53.3494 0.365224C55.0132 0.181443 57.3042 1.20249 57.8318 3.8143L40.1882 7.37846ZM51.4407 -8.46708C43.3335 -7.45352 38.7509 0.263591 40.1882 7.37846L57.8318 3.8143C58.2854 6.05982 56.8516 8.99659 53.6737 9.39389L51.4407 -8.46708Z" fill="#219D80" mask="url(#path-4-inside-1_29_274)"/>
<defs>
<clipPath id="clip0_29_274">
<rect width="66" height="52.8" fill="white" transform="translate(27 34)"/>
</clipPath>
</defs>
</svg>
