<svg width="120" height="120" viewBox="0 0 120 120" fill="none" xmlns="http://www.w3.org/2000/svg">
<circle cx="60" cy="60" r="60" fill="white"/>
<circle cx="60" cy="60" r="55.5" stroke="#219D80" stroke-opacity="0.15" stroke-width="9"/>
<g clip-path="url(#clip0_29_286)">
<path d="M40.2001 43.9C42.9329 43.9 45.1501 41.6828 45.1501 38.95C45.1501 36.2172 42.9329 34 40.2001 34C37.4673 34 35.2501 36.2172 35.2501 38.95C35.2501 41.6828 37.4673 43.9 40.2001 43.9ZM79.8001 43.9C82.5329 43.9 84.7501 41.6828 84.7501 38.95C84.7501 36.2172 82.5329 34 79.8001 34C77.0673 34 74.8501 36.2172 74.8501 38.95C74.8501 41.6828 77.0673 43.9 79.8001 43.9ZM92.7629 82.2728L88.2254 70.9291L83.987 75.7141L83.7807 77.5909L86.6373 84.7272C87.1529 86.0162 88.3904 86.8 89.7001 86.8C90.1126 86.8 90.5251 86.7278 90.9273 86.5628C92.6185 85.8822 93.4435 83.9641 92.7629 82.2728ZM89.236 60.6372L87.3282 52.3666C86.8539 50.3041 85.4101 48.5716 83.461 47.7362C81.5532 46.9112 79.4392 47.0453 77.6757 48.0766C75.3348 49.4584 73.5817 51.6344 72.7154 54.2022L71.5501 57.6981L69.9001 58.75V48.85C69.9001 47.9425 69.1576 47.2 68.2501 47.2H51.7501C50.8426 47.2 50.1001 47.9425 50.1001 48.85V58.75L48.4398 57.6981L47.2745 54.2022C46.4185 51.6241 44.6551 49.4584 42.3141 48.0766C40.5404 47.0453 38.4366 46.9112 36.5288 47.7362C34.5798 48.5716 33.136 50.3041 32.6616 52.3666L30.7641 60.6372C30.2898 62.6997 30.8363 64.8859 32.2491 66.4844L39.1791 74.3116L40.2207 83.8609C40.4063 85.5419 41.8295 86.8 43.5001 86.8C43.6238 86.8 43.7373 86.7897 43.861 86.7794C45.676 86.5834 46.9754 84.9541 46.7795 83.1391L45.7379 73.5691C45.5832 72.2284 45.0263 70.9806 44.1292 69.9597L39.6638 64.9066L41.4788 57.6569L42.1801 59.7606C42.6029 61.0497 43.4073 62.1737 44.7066 63.1225L49.9763 66.4741C50.4507 66.7731 51.2242 66.9484 51.7501 66.9897H68.2501C68.776 66.9484 69.5495 66.7731 70.0238 66.4741L75.2935 63.1225C76.5929 62.1737 77.3973 61.06 77.8201 59.7606L78.5214 57.6569L80.3363 64.9066L75.871 69.9597C74.9739 70.9806 74.417 72.2284 74.2623 73.5691L73.2207 83.1391C73.0248 84.9541 74.3345 86.5834 76.1392 86.7794C76.2629 86.7897 76.3764 86.8 76.5001 86.8C78.1604 86.8 79.5939 85.5522 79.7795 83.8609L80.821 74.3116L87.751 66.4844C89.1535 64.8859 89.7104 62.6997 89.236 60.6372ZM31.7748 70.9291L27.2373 82.2728C26.5566 83.9641 27.3816 85.8822 29.0729 86.5628C30.8054 87.2434 32.6926 86.3875 33.3629 84.7272L36.2195 77.5909L36.0132 75.7141L31.7748 70.9291Z" fill="#219D80"/>
</g>
<mask id="path-4-inside-1_29_286" fill="white">
<path fill-rule="evenodd" clip-rule="evenodd" d="M77.643 2.65258C66.6245 -0.73726 54.8947 -0.872137 43.8522 2.21373C41.4624 2.88158 40.2589 5.47525 41.1037 7.8084C41.9485 10.1417 44.5214 11.3275 46.9203 10.6928C51.0945 9.58839 55.4786 9 60.0001 9C88.1666 9 111 31.8335 111 60C111 88.1665 88.1666 111 60.0001 111C31.8335 111 9.00007 88.1665 9.00007 60C9.00007 59.6799 9.00302 59.3604 9.0089 59.0417C9.05465 56.5586 7.28698 54.3419 4.81768 54.0769C2.34625 53.8116 0.109915 55.6012 0.0305711 58.0855C-0.335336 69.5425 2.589 80.8999 8.50392 90.792C15.191 101.975 25.3369 110.678 37.4081 115.584C49.4793 120.49 62.8195 121.334 75.4125 117.987C88.0054 114.64 99.1665 107.284 107.209 97.0318C115.251 86.7795 119.737 74.1879 119.989 61.1602C120.241 48.1324 116.245 35.3768 108.605 24.8213C100.965 14.2657 90.0971 6.48409 77.643 2.65258Z"/>
</mask>
<path fill-rule="evenodd" clip-rule="evenodd" d="M77.643 2.65258C66.6245 -0.73726 54.8947 -0.872137 43.8522 2.21373C41.4624 2.88158 40.2589 5.47525 41.1037 7.8084C41.9485 10.1417 44.5214 11.3275 46.9203 10.6928C51.0945 9.58839 55.4786 9 60.0001 9C88.1666 9 111 31.8335 111 60C111 88.1665 88.1666 111 60.0001 111C31.8335 111 9.00007 88.1665 9.00007 60C9.00007 59.6799 9.00302 59.3604 9.0089 59.0417C9.05465 56.5586 7.28698 54.3419 4.81768 54.0769C2.34625 53.8116 0.109915 55.6012 0.0305711 58.0855C-0.335336 69.5425 2.589 80.8999 8.50392 90.792C15.191 101.975 25.3369 110.678 37.4081 115.584C49.4793 120.49 62.8195 121.334 75.4125 117.987C88.0054 114.64 99.1665 107.284 107.209 97.0318C115.251 86.7795 119.737 74.1879 119.989 61.1602C120.241 48.1324 116.245 35.3768 108.605 24.8213C100.965 14.2657 90.0971 6.48409 77.643 2.65258Z" fill="#C4C4C4"/>
<path d="M77.643 2.65258L74.9966 11.2547V11.2547L77.643 2.65258ZM8.50392 90.792L16.2283 86.1732H16.2283L8.50392 90.792ZM37.4081 115.584L34.0193 123.922L37.4081 115.584ZM75.4125 117.987L73.1006 109.289H73.1006L75.4125 117.987ZM107.209 97.0318L114.29 102.587L107.209 97.0318ZM108.605 24.8213L115.896 19.5444V19.5444L108.605 24.8213ZM9.0089 59.0417L0.0104235 58.8759L9.0089 59.0417ZM46.9203 10.6928L44.6184 1.99215L46.9203 10.6928ZM46.2745 10.8816C55.6605 8.25867 65.6309 8.37336 74.9966 11.2547L80.2894 -5.94953C67.6181 -9.84788 54.1288 -10.0029 41.4299 -6.45417L46.2745 10.8816ZM49.2223 19.3934C52.6519 18.486 56.2624 18 60.0001 18V2.84398e-06C54.6948 2.84398e-06 49.5372 0.69077 44.6184 1.99215L49.2223 19.3934ZM60.0001 18C83.196 18 102 36.804 102 60H120C120 26.8629 93.1372 2.84398e-06 60.0001 2.84398e-06V18ZM102 60C102 83.196 83.196 102 60.0001 102V120C93.1372 120 120 93.1371 120 60H102ZM60.0001 102C36.8041 102 18.0001 83.196 18.0001 60H7.24635e-05C7.24635e-05 93.1371 26.863 120 60.0001 120V102ZM18.0001 60C18.0001 59.7352 18.0025 59.471 18.0074 59.2075L0.0104235 58.8759C0.00353149 59.2499 7.24635e-05 59.6246 7.24635e-05 60H18.0001ZM16.2283 86.1732C11.2007 77.765 8.71497 68.1112 9.02598 58.3728L-8.96484 57.7982C-9.38564 70.9739 -6.02271 84.0349 0.779497 95.4108L16.2283 86.1732ZM40.7969 107.247C30.5364 103.076 21.9124 95.6791 16.2283 86.1732L0.779496 95.4108C8.46963 108.272 20.1374 118.28 34.0193 123.922L40.7969 107.247ZM73.1006 109.289C62.3966 112.134 51.0574 111.417 40.7969 107.247L34.0193 123.922C47.9012 129.564 63.2425 130.534 77.7243 126.685L73.1006 109.289ZM100.127 91.477C93.2915 100.191 83.8046 106.444 73.1006 109.289L77.7243 126.685C92.2062 122.836 105.041 114.377 114.29 102.587L100.127 91.477ZM110.991 60.9861C110.776 72.0597 106.963 82.7626 100.127 91.477L114.29 102.587C123.538 90.7964 128.697 76.3161 128.987 61.3342L110.991 60.9861ZM101.314 30.0981C107.808 39.0703 111.205 49.9126 110.991 60.9861L128.987 61.3342C129.277 46.3523 124.682 31.6833 115.896 19.5444L101.314 30.0981ZM74.9966 11.2547C85.5826 14.5115 94.8206 21.1259 101.314 30.0981L115.896 19.5444C107.11 7.40557 94.6117 -1.5433 80.2894 -5.94953L74.9966 11.2547ZM5.7782 45.1283C-1.44085 44.3534 -8.70397 49.6301 -8.96484 57.7982L9.02598 58.3728C8.9238 61.5723 6.13334 63.2698 3.85716 63.0255L5.7782 45.1283ZM18.0074 59.2075C18.1299 52.5605 13.3619 45.9423 5.7782 45.1283L3.85716 63.0255C1.21205 62.7416 -0.0205521 60.5568 0.0104235 58.8759L18.0074 59.2075ZM32.6413 10.8723C35.24 18.05 42.8074 21.0906 49.2223 19.3934L44.6184 1.99215C46.2353 1.56435 48.6569 2.23333 49.5661 4.74451L32.6413 10.8723ZM41.4299 -6.45417C33.5644 -4.25611 30.1709 4.04912 32.6413 10.8723L49.5661 4.74451C50.347 6.90138 49.3604 10.0193 46.2745 10.8816L41.4299 -6.45417Z" fill="#219D80" mask="url(#path-4-inside-1_29_286)"/>
<defs>
<clipPath id="clip0_29_286">
<rect width="66" height="52.8" fill="white" transform="translate(27 34)"/>
</clipPath>
</defs>
</svg>
