<svg width="120" height="120" viewBox="0 0 120 120" fill="none" xmlns="http://www.w3.org/2000/svg">
<circle cx="60" cy="60" r="60" fill="white"/>
<circle cx="60" cy="60" r="55.5" stroke="#219D80" stroke-opacity="0.15" stroke-width="9"/>
<g clip-path="url(#clip0_29_298)">
<path d="M64.1252 48.5528V44.9306C60.49 40.2513 58.0537 34.7083 57.1513 28.7915C56.8806 27.0513 54.7021 26.3681 53.5677 27.7216C50.8478 30.9313 48.708 34.6954 47.2642 38.872C51.6728 43.8091 57.5767 47.1993 64.1252 48.5528ZM78.5627 35.2497C72.865 35.2497 68.2502 39.8774 68.2502 45.5751V53.2321C54.7924 52.4329 43.3713 44.1442 38.215 32.388C37.506 30.7767 35.2244 30.6864 34.4767 32.272C32.3369 36.7966 31.1252 41.8497 31.1252 47.1864C31.1252 56.313 35.5209 64.8337 42.0951 71.1501C43.7966 72.7872 45.4595 74.1407 47.1095 75.3782L28.5599 80.0189C27.1806 80.3669 26.5619 81.9653 27.3353 83.1642C29.5783 86.6317 35.1213 92.5099 47.0838 92.9997C48.115 93.0384 49.1463 92.6646 49.9326 91.9814L58.3373 84.7497H68.2502C79.6455 84.7497 88.8752 75.5329 88.8752 64.1376V43.4997L93.0002 35.2497H78.5627ZM78.5627 47.6376C77.4283 47.6376 76.5002 46.7095 76.5002 45.5751C76.5002 44.4407 77.4283 43.5126 78.5627 43.5126C79.697 43.5126 80.6252 44.4407 80.6252 45.5751C80.6252 46.7095 79.697 47.6376 78.5627 47.6376Z" fill="#219D80"/>
</g>
<mask id="path-4-inside-1_29_298" fill="white">
<path fill-rule="evenodd" clip-rule="evenodd" d="M89.6438 7.83451C78.3652 1.42529 65.3508 -1.13615 52.5575 0.463431C50.0928 0.771595 48.5183 3.16181 49.0101 5.59649C49.5016 8.02935 51.8707 9.58343 54.3377 9.31092C56.1969 9.10555 58.0862 9.00013 60.0001 9.00013C88.1666 9.00013 111 31.8336 111 60.0001C111 88.1666 88.1666 111 60.0001 111C31.8336 111 9.00012 88.1666 9.00012 60.0001C9.00012 46.9566 13.8967 35.0568 21.9519 26.0386C23.6075 24.1851 23.7139 21.3498 22.0129 19.5381C20.3117 17.726 17.4493 17.6255 15.7698 19.4577C7.0585 28.9609 1.61101 41.0536 0.305002 53.9592C-1.15254 68.3622 2.6465 82.8066 11.0016 94.6288C19.3567 106.451 31.7044 114.854 45.7678 118.288C59.8313 121.722 74.6621 119.955 87.5254 113.314C100.389 106.673 110.417 95.6046 115.762 82.1506C121.106 68.6967 121.406 53.764 116.606 40.1063C111.806 26.4486 102.23 14.9868 89.6438 7.83451Z"/>
</mask>
<path fill-rule="evenodd" clip-rule="evenodd" d="M89.6438 7.83451C78.3652 1.42529 65.3508 -1.13615 52.5575 0.463431C50.0928 0.771595 48.5183 3.16181 49.0101 5.59649C49.5016 8.02935 51.8707 9.58343 54.3377 9.31092C56.1969 9.10555 58.0862 9.00013 60.0001 9.00013C88.1666 9.00013 111 31.8336 111 60.0001C111 88.1666 88.1666 111 60.0001 111C31.8336 111 9.00012 88.1666 9.00012 60.0001C9.00012 46.9566 13.8967 35.0568 21.9519 26.0386C23.6075 24.1851 23.7139 21.3498 22.0129 19.5381C20.3117 17.726 17.4493 17.6255 15.7698 19.4577C7.0585 28.9609 1.61101 41.0536 0.305002 53.9592C-1.15254 68.3622 2.6465 82.8066 11.0016 94.6288C19.3567 106.451 31.7044 114.854 45.7678 118.288C59.8313 121.722 74.6621 119.955 87.5254 113.314C100.389 106.673 110.417 95.6046 115.762 82.1506C121.106 68.6967 121.406 53.764 116.606 40.1063C111.806 26.4486 102.23 14.9868 89.6438 7.83451Z" fill="#C4C4C4"/>
<path d="M89.6438 7.83451L85.1973 15.6594L89.6438 7.83451ZM0.305002 53.9592L9.25927 54.8653L0.305002 53.9592ZM11.0016 94.6288L3.65182 99.8231H3.65182L11.0016 94.6288ZM45.7678 118.288L43.633 127.031L43.633 127.031L45.7678 118.288ZM87.5254 113.314L91.6542 121.311H91.6542L87.5254 113.314ZM115.762 82.1506L124.126 85.4732L124.126 85.4732L115.762 82.1506ZM116.606 40.1063L125.097 37.1223V37.1223L116.606 40.1063ZM15.7698 19.4577L9.13544 13.3761L15.7698 19.4577ZM21.9519 26.0386L28.6642 32.034L21.9519 26.0386ZM52.5575 0.463431L51.4409 -8.46703L52.5575 0.463431ZM53.6741 9.3939C64.5482 8.03428 75.6105 10.2116 85.1973 15.6594L94.0904 0.00967028C81.1198 -7.36101 66.1533 -10.3066 51.4409 -8.46703L53.6741 9.3939ZM55.3258 18.2565C56.8575 18.0873 58.417 18.0001 60.0001 18.0001V0.000125838C57.7554 0.000125838 55.5362 0.123789 53.3495 0.365331L55.3258 18.2565ZM60.0001 18.0001C83.1961 18.0001 102 36.8042 102 60.0001H120C120 26.863 93.1372 0.000125838 60.0001 0.000125838V18.0001ZM102 60.0001C102 83.1961 83.1961 102 60.0001 102V120C93.1372 120 120 93.1372 120 60.0001H102ZM60.0001 102C36.8042 102 18.0001 83.1961 18.0001 60.0001H0.000118276C0.000118276 93.1372 26.863 120 60.0001 120V102ZM18.0001 60.0001C18.0001 49.2526 22.0252 39.4667 28.6642 32.034L15.2397 20.0431C5.76821 30.6469 0.000118276 44.6607 0.000118276 60.0001H18.0001ZM9.25927 54.8653C10.3694 43.8957 14.9997 33.6168 22.4042 25.5392L9.13544 13.3761C-0.882719 24.305 -7.14734 38.2114 -8.64927 53.053L9.25927 54.8653ZM18.3514 89.4345C11.2495 79.3856 8.02036 67.1079 9.25927 54.8653L-8.64927 53.053C-10.3254 69.6165 -5.95654 86.2276 3.65182 99.8231L18.3514 89.4345ZM47.9027 109.545C35.9488 106.626 25.4532 99.4834 18.3514 89.4345L3.65182 99.8231C13.2602 113.419 27.46 123.082 43.633 127.031L47.9027 109.545ZM83.3966 105.317C72.4628 110.962 59.8566 112.463 47.9027 109.545L43.633 127.031C59.806 130.98 76.8614 128.948 91.6542 121.311L83.3966 105.317ZM107.397 78.8281C102.855 90.2639 94.3305 99.6718 83.3966 105.317L91.6542 121.311C106.447 113.674 117.98 100.945 124.126 85.4732L107.397 78.8281ZM108.115 43.0904C112.195 54.6995 111.94 67.3922 107.397 78.8281L124.126 85.4732C130.272 70.0011 130.617 52.8286 125.097 37.1223L108.115 43.0904ZM85.1973 15.6594C95.8957 21.7388 104.035 31.4814 108.115 43.0904L125.097 37.1223C119.577 21.4159 108.565 8.23485 94.0904 0.00967015L85.1973 15.6594ZM28.5743 13.3779C23.6047 8.08455 14.6574 7.35223 9.13544 13.3761L22.4042 25.5392C20.2413 27.8987 17.0186 27.3675 15.4514 25.6982L28.5743 13.3779ZM28.6642 32.034C33.0929 27.0759 33.8 18.9441 28.5743 13.3779L15.4514 25.6982C13.6277 23.7556 14.122 21.2943 15.2397 20.0431L28.6642 32.034ZM40.1883 7.37857C41.6988 14.8561 48.728 18.9853 55.3258 18.2565L53.3495 0.365331C55.0133 0.181551 57.3043 1.2026 57.8319 3.81441L40.1883 7.37857ZM51.4409 -8.46703C43.3343 -7.45344 38.7509 0.263163 40.1883 7.37857L57.8319 3.81441C58.2856 6.06046 56.8514 8.99663 53.6741 9.3939L51.4409 -8.46703Z" fill="#219D80" mask="url(#path-4-inside-1_29_298)"/>
<defs>
<clipPath id="clip0_29_298">
<rect width="66" height="66" fill="white" transform="translate(27 27)"/>
</clipPath>
</defs>
</svg>
