<svg width="120" height="120" viewBox="0 0 120 120" fill="none" xmlns="http://www.w3.org/2000/svg">
<circle cx="60" cy="60" r="60" fill="white"/>
<circle cx="60" cy="60" r="55.5" stroke="#219D80" stroke-opacity="0.15" stroke-width="9"/>
<path d="M60 27.0645C41.7742 27.0645 27 41.8386 27 60.0645C27 78.2903 41.7742 93.0645 60 93.0645C78.2258 93.0645 93 78.2903 93 60.0645C93 41.8386 78.2258 27.0645 60 27.0645ZM58.4911 59.0305C58.1065 59.6719 57.4132 60.0645 56.6654 60.0645H56.6242C56.06 60.0645 55.5184 60.2893 55.1192 60.6885L54.3661 61.4417C53.9509 61.8568 53.9509 62.5315 54.3661 62.9466L55.1192 63.6998C55.5184 64.099 55.7433 64.6405 55.7433 65.2047V66.4516C55.7433 67.6278 54.7905 68.5806 53.6142 68.5806H52.8012C51.9948 68.5806 51.2577 68.1255 50.8971 67.403L47.8871 61.3845C47.5625 60.7351 46.6962 60.5941 46.1826 61.1077L43.5918 63.6971C43.1926 64.0963 42.651 64.3212 42.0869 64.3212H33.761C33.5361 62.932 33.3871 61.5175 33.3871 60.0645C33.3871 45.3901 45.3256 33.4516 60 33.4516C62.8622 33.4516 65.6153 33.9186 68.2008 34.7582L61.5263 39.8852C60.8463 40.339 60.9102 41.3569 61.6407 41.7228L63.0818 42.4427C63.803 42.8033 64.2581 43.5405 64.2581 44.3469V54.7419C64.2581 55.33 63.7817 55.8064 63.1936 55.8064H62.7864C62.3832 55.8064 62.0146 55.5788 61.835 55.2182C61.6274 54.8031 61.0419 54.7805 60.8024 55.1783L58.4911 59.0305ZM81.2903 73.6943C81.2903 74.2584 81.0654 74.8 80.6663 75.1992L79.3928 76.4726C78.9936 76.8718 78.4521 77.0967 77.8879 77.0967H75.8706C75.3064 77.0967 74.7648 76.8718 74.3656 76.4726L72.6345 74.7415C72.1995 74.3066 71.6594 73.9917 71.0666 73.8275C70.4739 73.6634 69.8487 73.6555 69.252 73.8047L66.4217 74.5126C66.2527 74.5552 66.0797 74.5765 65.9054 74.5765H64.5295C63.9653 74.5765 63.4238 74.3516 63.0246 73.9524L61.4398 72.3676C61.2403 72.1677 61.1283 71.8968 61.1284 71.6145V70.2572C61.1284 69.8221 61.3932 69.4309 61.7977 69.2685L67.0325 67.1741C67.2959 67.069 67.5461 66.9319 67.7763 66.7682L70.9313 64.5208C71.1115 64.3924 71.3274 64.3235 71.5487 64.3239H73.1574C73.5872 64.3239 73.9758 64.582 74.1408 64.9799L74.8527 66.6897C74.8931 66.7867 74.9613 66.8694 75.0486 66.9277C75.136 66.9859 75.2387 67.017 75.3437 67.0171H75.8493C76.0862 67.0171 76.2951 66.8601 76.3603 66.6339L76.9192 64.7084C76.9857 64.4809 77.1933 64.3252 77.4301 64.3252H78.2365C78.5306 64.3252 78.7688 64.5634 78.7688 64.8574V66.578C78.7688 66.8601 78.8805 67.1315 79.0801 67.3311L80.6649 68.9159C81.0641 69.3151 81.289 69.8567 81.289 70.4209V73.6943H81.2903Z" fill="#219D80"/>
<mask id="path-4-inside-1_29_262" fill="white">
<path fill-rule="evenodd" clip-rule="evenodd" d="M75.4614 2.02633C67.9849 0.0323831 60.2074 -0.492968 52.5572 0.463413C50.0925 0.771533 48.5182 3.16169 49.01 5.59637C49.5015 8.02922 51.8706 9.5833 54.3376 9.3108C56.1968 9.10543 58.0861 9 60 9C88.1665 9 111 31.8335 111 60C111 88.1665 88.1665 111 60 111C55.6324 111 51.393 110.451 47.347 109.418C44.9427 108.804 42.3802 110.012 41.5557 112.353C40.7311 114.693 41.9569 117.277 44.3524 117.924C51.7968 119.935 59.5734 120.496 67.2558 119.56C76.4279 118.442 85.218 115.222 92.9408 110.149C100.664 105.076 107.11 98.2881 111.779 90.3143C116.447 82.3404 119.211 73.3962 119.854 64.1787C120.498 54.9613 119.004 45.7197 115.489 37.1746C111.974 28.6294 106.533 21.0116 99.5895 14.9148C92.6465 8.81814 84.3892 4.40735 75.4614 2.02633Z"/>
</mask>
<path fill-rule="evenodd" clip-rule="evenodd" d="M75.4614 2.02633C67.9849 0.0323831 60.2074 -0.492968 52.5572 0.463413C50.0925 0.771533 48.5182 3.16169 49.01 5.59637C49.5015 8.02922 51.8706 9.5833 54.3376 9.3108C56.1968 9.10543 58.0861 9 60 9C88.1665 9 111 31.8335 111 60C111 88.1665 88.1665 111 60 111C55.6324 111 51.393 110.451 47.347 109.418C44.9427 108.804 42.3802 110.012 41.5557 112.353C40.7311 114.693 41.9569 117.277 44.3524 117.924C51.7968 119.935 59.5734 120.496 67.2558 119.56C76.4279 118.442 85.218 115.222 92.9408 110.149C100.664 105.076 107.11 98.2881 111.779 90.3143C116.447 82.3404 119.211 73.3962 119.854 64.1787C120.498 54.9613 119.004 45.7197 115.489 37.1746C111.974 28.6294 106.533 21.0116 99.5895 14.9148C92.6465 8.81814 84.3892 4.40735 75.4614 2.02633Z" fill="#C4C4C4"/>
<path d="M75.4614 2.02633L73.1422 10.7224L75.4614 2.02633ZM67.2558 119.56L66.1675 110.626L67.2558 119.56ZM111.779 90.3143L104.012 85.7671L111.779 90.3143ZM119.854 64.1787L128.832 64.8055L128.832 64.8055L119.854 64.1787ZM115.489 37.1746L107.165 40.5984V40.5984L115.489 37.1746ZM99.5895 14.9148L105.528 8.15207V8.15207L99.5895 14.9148ZM47.347 109.418L45.1209 118.138L47.347 109.418ZM44.3524 117.924L42.0053 126.612L44.3524 117.924ZM54.3376 9.3108L53.3494 0.365207L54.3376 9.3108ZM53.6736 9.3939C60.1763 8.58097 66.7872 9.02753 73.1422 10.7224L77.7806 -6.66972C69.1826 -8.96276 60.2385 -9.56691 51.4407 -8.46707L53.6736 9.3939ZM55.3257 18.2564C56.8574 18.0872 58.4169 18 60 18V9.45519e-07C57.7553 9.45519e-07 55.5361 0.123664 53.3494 0.365207L55.3257 18.2564ZM60 18C83.196 18 102 36.804 102 60H120C120 26.8629 93.1371 9.45519e-07 60 9.45519e-07V18ZM102 60C102 83.196 83.196 102 60 102V120C93.1371 120 120 93.1371 120 60H102ZM60 102C56.3894 102 52.8976 101.546 49.5731 100.698L45.1209 118.138C49.8883 119.355 54.8754 120 60 120V102ZM66.1675 110.626C59.6374 111.421 53.0273 110.945 46.6996 109.235L42.0053 126.612C50.5663 128.925 59.5093 129.57 68.3442 128.494L66.1675 110.626ZM87.9997 102.627C81.4353 106.938 73.9637 109.676 66.1675 110.626L68.3442 128.494C78.8921 127.209 89.0007 123.505 97.8819 117.671L87.9997 102.627ZM104.012 85.7671C100.044 92.5449 94.5641 98.3146 87.9997 102.627L97.8819 117.671C106.763 111.837 114.177 104.031 119.546 94.8614L104.012 85.7671ZM110.876 63.5519C110.329 71.3867 107.98 78.9894 104.012 85.7671L119.546 94.8614C124.914 85.6915 128.092 75.4056 128.832 64.8055L110.876 63.5519ZM107.165 40.5984C110.153 47.8618 111.423 55.7171 110.876 63.5519L128.832 64.8055C129.573 54.2055 127.854 43.5777 123.812 33.7508L107.165 40.5984ZM93.6511 21.6776C99.5527 26.8598 104.178 33.335 107.165 40.5984L123.812 33.7508C119.77 23.9238 113.512 15.1633 105.528 8.15207L93.6511 21.6776ZM73.1422 10.7224C80.7308 12.7462 87.7495 16.4954 93.6511 21.6776L105.528 8.15207C97.5435 1.14086 88.0476 -3.93155 77.7806 -6.66972L73.1422 10.7224ZM49.5731 100.698C43.1439 99.0566 35.6035 102.163 33.0671 109.362L50.0443 115.344C49.1569 117.862 46.7415 118.552 45.1209 118.138L49.5731 100.698ZM33.0671 109.362C30.6559 116.206 34.1205 124.482 42.0053 126.612L46.6996 109.235C49.7932 110.071 50.8063 113.18 50.0443 115.344L33.0671 109.362ZM40.1882 7.37844C41.6988 14.856 48.728 18.9852 55.3257 18.2564L53.3494 0.365207C55.0132 0.181426 57.3042 1.20247 57.8318 3.81429L40.1882 7.37844ZM51.4407 -8.46707C43.3333 -7.45352 38.751 0.263735 40.1882 7.37844L57.8318 3.81429C58.2854 6.05964 56.8517 8.99659 53.6736 9.3939L51.4407 -8.46707Z" fill="#219D80" mask="url(#path-4-inside-1_29_262)"/>
</svg>
